<svg width="100" height="100" viewBox="0 0 100 100" fill="none" xmlns="http://www.w3.org/2000/svg">
<path d="M12.5 87.5V25C12.5 21.5278 13.7153 18.5764 16.1458 16.1458C18.5764 13.7153 21.5278 12.5 25 12.5H41.6667C45.1389 12.5 48.0903 13.7153 50.5208 16.1458C52.9514 18.5764 54.1667 21.5278 54.1667 25V87.5H12.5ZM41.6667 62.5H45.8333V41.6667H41.6667V62.5ZM20.8333 79.1667H45.8333V70.8333H41.6667C39.375 70.8333 37.4125 70.0167 35.7792 68.3833C34.1458 66.75 33.3306 64.7889 33.3333 62.5V41.6667C33.3333 39.375 34.15 37.4125 35.7833 35.7792C37.4167 34.1458 39.3778 33.3306 41.6667 33.3333H45.8333V25C45.8333 23.8194 45.4333 22.8292 44.6333 22.0292C43.8333 21.2292 42.8444 20.8306 41.6667 20.8333H25C23.8194 20.8333 22.8292 21.2333 22.0292 22.0333C21.2292 22.8333 20.8306 23.8222 20.8333 25V79.1667ZM71.6667 56.5625C69.8611 56.5625 68.0903 56.3194 66.3542 55.8333C64.6181 55.3472 62.9167 54.7222 61.25 53.9583L63.8542 46.0417C65.2431 46.6667 66.6153 47.1875 67.9708 47.6042C69.3264 48.0208 70.5931 48.2292 71.7708 48.2292C72.6042 48.2292 73.4375 48.0903 74.2708 47.8125C75.1042 47.5347 75.9722 47.1181 76.875 46.5625C78.5417 45.3819 80.2083 44.5833 81.875 44.1667C83.5417 43.75 85.1389 43.5417 86.6667 43.5417C88.4028 43.5417 90.1917 43.7681 92.0333 44.2208C93.875 44.6736 95.5931 45.2806 97.1875 46.0417L94.5833 53.9583C92.9861 53.4028 91.5111 52.9167 90.1583 52.5C88.8056 52.0833 87.6417 51.875 86.6667 51.875C85.8333 51.875 84.9139 52.0319 83.9083 52.3458C82.9028 52.6597 81.8431 53.1972 80.7292 53.9583C79.2708 54.9306 77.7944 55.6083 76.3 55.9917C74.8056 56.375 73.2611 56.5653 71.6667 56.5625ZM71.7708 40.3125C69.9653 40.3125 68.1597 40.0694 66.3542 39.5833C64.5486 39.0972 62.8472 38.4722 61.25 37.7083L63.8542 29.7917C65.6597 30.5556 67.1875 31.1111 68.4375 31.4583C69.6875 31.8056 70.7986 31.9792 71.7708 31.9792C72.6042 31.9792 73.4375 31.8569 74.2708 31.6125C75.1042 31.3681 75.9722 30.9347 76.875 30.3125C78.6111 29.1319 80.2958 28.3333 81.9292 27.9167C83.5625 27.5 85.1417 27.2917 86.6667 27.2917C88.4028 27.2917 90.1389 27.5167 91.875 27.9667C93.6111 28.4167 95.3819 29.025 97.1875 29.7917L94.5833 37.7083C92.7778 37.0833 91.25 36.5792 90 36.1958C88.75 35.8125 87.6389 35.6222 86.6667 35.625C85.7639 35.625 84.843 35.7639 83.9042 36.0417C82.9653 36.3194 81.9069 36.875 80.7292 37.7083C79.4792 38.6111 78.0736 39.2708 76.5125 39.6875C74.9514 40.1042 73.3708 40.3125 71.7708 40.3125ZM71.7708 72.8125C69.9653 72.8125 68.1764 72.5694 66.4042 72.0833C64.6319 71.5972 62.9139 70.9722 61.25 70.2083L63.8542 62.2917C65.3819 62.9861 66.8056 63.525 68.125 63.9083C69.4444 64.2917 70.6597 64.4819 71.7708 64.4792C72.6042 64.4792 73.4375 64.3569 74.2708 64.1125C75.1042 63.8681 75.9722 63.4347 76.875 62.8125C78.4722 61.7014 80.1736 60.9194 81.9792 60.4667C83.7847 60.0139 85.3819 59.7889 86.7708 59.7917C88.5069 59.7917 90.2778 60.0347 92.0833 60.5208C93.8889 61.0069 95.5903 61.5972 97.1875 62.2917L94.5833 70.2083C92.7778 69.5833 91.2333 69.0792 89.95 68.6958C88.6667 68.3125 87.5722 68.1222 86.6667 68.125C85.6944 68.125 84.7042 68.2819 83.6958 68.5958C82.6875 68.9097 81.6986 69.4472 80.7292 70.2083C79.5486 71.0417 78.1764 71.6847 76.6125 72.1375C75.0486 72.5903 73.4347 72.8153 71.7708 72.8125Z" fill="black"/>
</svg>
