<svg width="13" height="13" viewBox="0 0 13 13" fill="none" xmlns="http://www.w3.org/2000/svg">
<path d="M8.90625 0H3.28125C2.41129 0.000930601 1.57724 0.346932 0.962084 0.962084C0.346932 1.57724 0.000930601 2.41129 0 3.28125V8.90625C0.000930601 9.77621 0.346932 10.6103 0.962084 11.2254C1.57724 11.8406 2.41129 12.1866 3.28125 12.1875H8.90625C9.77621 12.1866 10.6103 11.8406 11.2254 11.2254C11.8406 10.6103 12.1866 9.77621 12.1875 8.90625V3.28125C12.1866 2.41129 11.8406 1.57724 11.2254 0.962084C10.6103 0.346932 9.77621 0.000930601 8.90625 0ZM6.09375 8.90625C5.53749 8.90625 4.99372 8.7413 4.53121 8.43226C4.0687 8.12322 3.70821 7.68396 3.49534 7.17005C3.28247 6.65613 3.22677 6.09063 3.33529 5.54506C3.44381 4.99949 3.71168 4.49835 4.10501 4.10501C4.49835 3.71168 4.99949 3.44381 5.54506 3.33529C6.09063 3.22677 6.65613 3.28247 7.17005 3.49534C7.68396 3.70821 8.12322 4.0687 8.43226 4.53121C8.7413 4.99372 8.90625 5.53749 8.90625 6.09375C8.90547 6.83943 8.60891 7.55435 8.08163 8.08163C7.55435 8.60891 6.83943 8.90547 6.09375 8.90625ZM9.60938 3.28125C9.47031 3.28125 9.33437 3.24001 9.21874 3.16275C9.10311 3.08549 9.01299 2.97568 8.95977 2.8472C8.90655 2.71872 8.89263 2.57734 8.91976 2.44095C8.94689 2.30456 9.01386 2.17927 9.11219 2.08094C9.21052 1.98261 9.33581 1.91564 9.4722 1.88851C9.6086 1.86138 9.74997 1.8753 9.87845 1.92852C10.0069 1.98174 10.1167 2.07186 10.194 2.18749C10.2713 2.30312 10.3125 2.43906 10.3125 2.57812C10.3125 2.76461 10.2384 2.94345 10.1066 3.07531C9.9747 3.20717 9.79586 3.28125 9.60938 3.28125ZM7.96875 6.09375C7.96875 6.46459 7.85878 6.8271 7.65276 7.13544C7.44673 7.44379 7.15389 7.68411 6.81128 7.82602C6.46867 7.96794 6.09167 8.00507 5.72796 7.93272C5.36424 7.86038 5.03015 7.6818 4.76792 7.41957C4.5057 7.15735 4.32712 6.82326 4.25478 6.45954C4.18243 6.09583 4.21956 5.71883 4.36148 5.37622C4.50339 5.03361 4.74371 4.74077 5.05206 4.53474C5.3604 4.32872 5.72291 4.21875 6.09375 4.21875C6.59103 4.21875 7.06794 4.41629 7.41957 4.76792C7.77121 5.11956 7.96875 5.59647 7.96875 6.09375Z" fill="black"/>
</svg>
