<svg width="40" height="39" viewBox="0 0 40 39" fill="none" xmlns="http://www.w3.org/2000/svg">
<path d="M12.9577 3.22461H26.4998C31.6586 3.22461 35.8502 7.41619 35.8502 12.5751V26.1171C35.8502 28.597 34.8651 30.9753 33.1115 32.7288C31.358 34.4824 28.9797 35.4675 26.4998 35.4675H12.9577C7.79887 35.4675 3.60729 31.2759 3.60729 26.1171V12.5751C3.60729 10.0952 4.59243 7.71684 6.34597 5.96329C8.09952 4.20974 10.4778 3.22461 12.9577 3.22461ZM12.6353 6.4489C11.0961 6.4489 9.61986 7.06036 8.53146 8.14877C7.44305 9.23718 6.83158 10.7134 6.83158 12.2526V26.4395C6.83158 29.6477 9.42714 32.2432 12.6353 32.2432H26.8222C28.3614 32.2432 29.8376 31.6318 30.926 30.5434C32.0145 29.455 32.6259 27.9788 32.6259 26.4395V12.2526C32.6259 9.04446 30.0304 6.4489 26.8222 6.4489H12.6353ZM28.1925 8.86712C28.727 8.86712 29.2395 9.07943 29.6175 9.45735C29.9954 9.83527 30.2077 10.3478 30.2077 10.8823C30.2077 11.4168 29.9954 11.9293 29.6175 12.3073C29.2395 12.6852 28.727 12.8975 28.1925 12.8975C27.6581 12.8975 27.1455 12.6852 26.7676 12.3073C26.3896 11.9293 26.1773 11.4168 26.1773 10.8823C26.1773 10.3478 26.3896 9.83527 26.7676 9.45735C27.1455 9.07943 27.6581 8.86712 28.1925 8.86712ZM19.7287 11.2853C21.8666 11.2853 23.9169 12.1346 25.4285 13.6463C26.9402 15.158 27.7895 17.2082 27.7895 19.3461C27.7895 21.4839 26.9402 23.5342 25.4285 25.0459C23.9169 26.5575 21.8666 27.4068 19.7287 27.4068C17.5909 27.4068 15.5406 26.5575 14.029 25.0459C12.5173 23.5342 11.668 21.4839 11.668 19.3461C11.668 17.2082 12.5173 15.158 14.029 13.6463C15.5406 12.1346 17.5909 11.2853 19.7287 11.2853ZM19.7287 14.5096C18.446 14.5096 17.2159 15.0192 16.3089 15.9262C15.4019 16.8332 14.8923 18.0634 14.8923 19.3461C14.8923 20.6288 15.4019 21.8589 16.3089 22.7659C17.2159 23.673 18.446 24.1825 19.7287 24.1825C21.0115 24.1825 22.2416 23.673 23.1486 22.7659C24.0556 21.8589 24.5652 20.6288 24.5652 19.3461C24.5652 18.0634 24.0556 16.8332 23.1486 15.9262C22.2416 15.0192 21.0115 14.5096 19.7287 14.5096Z" fill="black"/>
</svg>
