<svg width="464" height="48" viewBox="0 0 464 48" fill="none" xmlns="http://www.w3.org/2000/svg">
<path d="M222.75 35.4592C225.087 35.0385 227.222 33.6132 228.764 31.4433C230.306 29.2735 231.153 26.5037 231.151 23.6394C231.163 20.044 232.239 16.573 234.183 13.858C236.128 11.1429 238.811 9.36409 241.746 8.84508L245.955 8.1162C245.841 7.9586 245.744 7.80101 245.614 7.64341C240.316 1.22136 230.144 3.15192 222.864 11.9379C216.705 19.5025 214.625 29.5493 217.485 36.3653L222.75 35.4592Z" fill="#14213D"/>
<path d="M233.686 23.6396C233.676 27.2344 232.603 30.7055 230.662 33.4234C228.721 36.1413 226.041 37.9259 223.108 38.4536L219.11 39.1431L219.354 39.478C224.651 45.9 234.824 43.9892 242.104 35.2032C248.23 27.7962 250.375 17.7297 247.531 11.0121L242.104 11.9577C239.782 12.3667 237.657 13.769 236.113 15.9115C234.569 18.0539 233.708 20.795 233.686 23.6396Z" fill="#14213D"/>
<line y1="23" x2="197" y2="23" stroke="black" stroke-width="2"/>
<line x1="267" y1="23" x2="464" y2="23" stroke="black" stroke-width="2"/>
</svg>
