<svg width="16" height="16" viewBox="0 0 16 16" fill="none" xmlns="http://www.w3.org/2000/svg">
<path d="M4.66659 15.3333C4.29992 15.3333 3.98614 15.2029 3.72525 14.942C3.46392 14.6807 3.33325 14.3667 3.33325 14V1.99999C3.33325 1.63332 3.46392 1.31932 3.72525 1.05799C3.98614 0.797101 4.29992 0.666656 4.66659 0.666656H11.3333C11.6999 0.666656 12.0139 0.797101 12.2753 1.05799C12.5361 1.31932 12.6666 1.63332 12.6666 1.99999V14C12.6666 14.3667 12.5361 14.6807 12.2753 14.942C12.0139 15.2029 11.6999 15.3333 11.3333 15.3333H4.66659ZM7.99992 13.6667C8.18881 13.6667 8.34725 13.6027 8.47525 13.4747C8.60281 13.3471 8.66659 13.1889 8.66659 13C8.66659 12.8111 8.60281 12.6529 8.47525 12.5253C8.34725 12.3973 8.18881 12.3333 7.99992 12.3333C7.81103 12.3333 7.65281 12.3973 7.52525 12.5253C7.39725 12.6529 7.33325 12.8111 7.33325 13C7.33325 13.1889 7.39725 13.3471 7.52525 13.4747C7.65281 13.6027 7.81103 13.6667 7.99992 13.6667ZM4.66659 10.6667H11.3333V3.99999H4.66659V10.6667Z" fill="white"/>
</svg>
