<svg width="100" height="100" viewBox="0 0 100 100" fill="none" xmlns="http://www.w3.org/2000/svg">
<path d="M71.875 42.4125C75.6643 42.4125 79.2984 40.9072 81.9778 38.2278M71.875 42.4125C68.0857 42.4125 64.4516 40.9072 61.7722 38.2278M71.875 42.4125V53.125M81.9778 38.2278C84.6572 35.5484 86.1625 31.9143 86.1625 28.125M81.9778 38.2278L89.5542 45.8042M86.1625 28.125C86.1625 24.3357 84.6572 20.7016 81.9778 18.0222M86.1625 28.125H96.875M81.9778 18.0222C79.2984 15.3428 75.6643 13.8375 71.875 13.8375M81.9778 18.0222L89.5542 10.4458M71.875 13.8375C68.0857 13.8375 64.4516 15.3428 61.7722 18.0222M71.875 13.8375V3.125M61.7722 18.0222C59.0928 20.7016 57.5875 24.3357 57.5875 28.125M61.7722 18.0222L54.1958 10.4458M57.5875 28.125C57.5875 31.9143 59.0928 35.5484 61.7722 38.2278M57.5875 28.125H46.875M61.7722 38.2278L54.1958 45.8042M69.4958 3.125H74.2542M87.8708 8.7625L91.2375 12.1292M96.875 25.7458V30.5042M91.2375 44.1208L87.8708 47.4875M74.2542 53.125H69.4958M55.8792 47.4875L52.5125 44.1208M46.875 30.5042V25.7458M52.5125 12.1292L55.8792 8.7625M21.875 21.875V71.875M34.375 64.2417V15.625C34.375 12.3098 33.058 9.13037 30.7138 6.78616C28.3696 4.44196 25.1902 3.125 21.875 3.125C18.5598 3.125 15.3804 4.44196 13.0362 6.78616C10.692 9.13037 9.375 12.3098 9.375 15.625V64.2417C7.05593 66.3305 5.29592 68.966 4.25506 71.9085C3.21419 74.8509 2.92551 78.0069 3.41528 81.0894C3.90505 84.1718 5.15771 87.0829 7.05933 89.5578C8.96095 92.0328 11.4512 93.993 14.3035 95.2601C17.1558 96.5273 20.2796 97.0613 23.3909 96.8134C26.5022 96.5655 29.5021 95.5437 32.1178 93.8409C34.7335 92.1381 36.8819 89.8084 38.3677 87.0636C39.8535 84.3188 40.6295 81.2461 40.625 78.125C40.6194 75.5013 40.0597 72.9083 38.9827 70.5158C37.9057 68.1234 36.3355 65.9853 34.375 64.2417Z" stroke="black" stroke-width="6.25" stroke-linecap="round" stroke-linejoin="round"/>
<path d="M21.875 84.375C23.5326 84.375 25.1223 83.7165 26.2944 82.5444C27.4665 81.3723 28.125 79.7826 28.125 78.125C28.125 76.4674 27.4665 74.8777 26.2944 73.7056C25.1223 72.5335 23.5326 71.875 21.875 71.875C20.2174 71.875 18.6277 72.5335 17.4556 73.7056C16.2835 74.8777 15.625 76.4674 15.625 78.125C15.625 79.7826 16.2835 81.3723 17.4556 82.5444C18.6277 83.7165 20.2174 84.375 21.875 84.375Z" stroke="black" stroke-width="6.25" stroke-linecap="round" stroke-linejoin="round"/>
</svg>
