<svg width="16" height="16" viewBox="0 0 16 16" fill="none" xmlns="http://www.w3.org/2000/svg">
<path d="M8.00008 2.66666C8.70733 2.66666 9.3856 2.94761 9.8857 3.4477C10.3858 3.9478 10.6667 4.62608 10.6667 5.33332C10.6667 6.04057 10.3858 6.71884 9.8857 7.21894C9.3856 7.71904 8.70733 7.99999 8.00008 7.99999C7.29284 7.99999 6.61456 7.71904 6.11446 7.21894C5.61437 6.71884 5.33341 6.04057 5.33341 5.33332C5.33341 4.62608 5.61437 3.9478 6.11446 3.4477C6.61456 2.94761 7.29284 2.66666 8.00008 2.66666ZM8.00008 9.33332C10.9467 9.33332 13.3334 10.5267 13.3334 12V13.3333H2.66675V12C2.66675 10.5267 5.05341 9.33332 8.00008 9.33332Z" fill="white"/>
</svg>
